<?xml version="1.0" encoding="utf-8"?>
<!-- Generator: Adobe Illustrator 16.1.0, SVG Export Plug-In . SVG Version: 6.00 Build 0)  -->
<!DOCTYPE svg PUBLIC "-//W3C//DTD SVG 1.1//EN" "http://www.w3.org/Graphics/SVG/1.1/DTD/svg11.dtd">
<svg version="1.1" id="Layer_1" xmlns="http://www.w3.org/2000/svg" xmlns:xlink="http://www.w3.org/1999/xlink" x="0px" y="0px"
	 width="18px" height="36px" viewBox="0 0 18 36" enable-background="new 0 0 18 36" xml:space="preserve">
<circle fill="#D3D3D3" cx="9" cy="9" r="9"/>
<path id="facebook" fill="#FFFFFF" d="M11.576,7.466H9.717V5.969c0-0.311,0.367-0.64,0.717-0.64h1.159V3.676H9.952
	c-0.804,0-1.413,0.195-1.808,0.578C7.787,4.598,7.608,5.083,7.61,5.7v1.774H6.409v1.575H7.61v5.275h2.098V9.048h1.678
	C11.428,8.773,11.517,8.15,11.576,7.466z"/>
<g id="colors">
	<circle fill="#FF6C01" cx="9" cy="27" r="9"/>
	<circle display="none" fill="#8DC63E" cx="9" cy="27" r="9"/>
	<circle display="none" fill="#318DBD" cx="9" cy="27" r="9"/>
</g>
<path id="facebook_1_" fill="#FFFFFF" d="M11.576,25.466H9.717v-1.497c0-0.311,0.367-0.64,0.717-0.64h1.159v-1.654H9.952
	c-0.804,0-1.413,0.195-1.808,0.578c-0.357,0.344-0.537,0.83-0.534,1.446v1.774H6.409v1.574H7.61v5.275h2.098v-5.275h1.678
	C11.428,26.773,11.517,26.15,11.576,25.466z"/>
</svg>
