<?xml version="1.0" encoding="utf-8"?>
<!-- Generator: Adobe Illustrator 16.1.0, SVG Export Plug-In . SVG Version: 6.00 Build 0)  -->
<!DOCTYPE svg PUBLIC "-//W3C//DTD SVG 1.1//EN" "http://www.w3.org/Graphics/SVG/1.1/DTD/svg11.dtd">
<svg version="1.1" id="Layer_1" xmlns="http://www.w3.org/2000/svg" xmlns:xlink="http://www.w3.org/1999/xlink" x="0px" y="0px"
	 width="18px" height="36px" viewBox="0 0 18 36" enable-background="new 0 0 18 36" xml:space="preserve">
<circle fill="#D3D3D3" cx="9" cy="9" r="9"/>
<g id="Google">
	<g>
		<path fill="#FFFFFF" d="M10.902,9.501l-0.488-0.366c-0.111-0.107-0.234-0.213-0.234-0.375c0-0.179,0.113-0.301,0.26-0.448
			l0.025-0.032c0.52-0.398,1.164-0.912,1.164-1.995c0-0.579-1.115-1.221-1.508-1.653h1.631V3.857h-2.29
			c-0.659,0-1.636,0.082-2.459,0.758c-0.57,0.488-0.912,1.197-0.912,1.897c0,1.091,0.831,2.256,2.37,2.256
			c0.032,0,0.065,0,0.098-0.008C8.543,8.834,8.534,8.922,8.534,9.021c0,0.294,0.09,0.513,0.203,0.7
			c-0.691,0.057-1.531,0.188-2.19,0.596c-1.019,0.602-1.1,1.498-1.1,1.758c0,1.027,0.929,2.068,2.997,2.068
			c2.378,0,4.108-1.33,4.108-2.654C12.553,10.486,11.482,9.99,10.902,9.501z M9.079,13.166c-1.229,0-2.052-0.547-2.052-1.361
			c0-0.766,0.684-1.021,0.961-1.123c0.554-0.188,1.278-0.195,1.286-0.195V10.38l0.017,0.106c0.09,0,0.139,0,0.203,0.008
			c0.996,0.703,1.279,0.986,1.279,1.491C10.771,12.709,10.12,13.166,9.079,13.166z M7.671,5.877c0-0.359,0.073-0.627,0.228-0.814
			c0.171-0.204,0.473-0.35,0.741-0.35c0.879,0,1.416,1.262,1.416,2.158c0,0.367-0.08,0.619-0.251,0.798
			c-0.188,0.18-0.48,0.293-0.733,0.293C8.078,7.961,7.671,6.61,7.671,5.877z"/>
	</g>
</g>
<g id="colors">
	<circle fill="#FF6C01" cx="9" cy="27" r="9"/>
	<circle display="none" fill="#8DC63E" cx="9" cy="27" r="9"/>
	<circle display="none" fill="#318DBD" cx="9" cy="27" r="9"/>
</g>
<g id="Google_1_">
	<g>
		<path fill="#FFFFFF" d="M10.902,27.501l-0.488-0.367c-0.111-0.107-0.234-0.213-0.234-0.375c0-0.179,0.113-0.301,0.26-0.448
			l0.025-0.032c0.52-0.398,1.164-0.912,1.164-1.995c0-0.579-1.115-1.222-1.508-1.653h1.631v-0.773h-2.29
			c-0.659,0-1.636,0.082-2.459,0.758c-0.57,0.488-0.912,1.197-0.912,1.897c0,1.091,0.831,2.256,2.37,2.256
			c0.032,0,0.065,0,0.098-0.009c-0.016,0.074-0.024,0.162-0.024,0.262c0,0.293,0.09,0.512,0.203,0.699
			c-0.691,0.057-1.531,0.188-2.19,0.596c-1.019,0.602-1.1,1.498-1.1,1.758c0,1.027,0.929,2.068,2.997,2.068
			c2.378,0,4.108-1.33,4.108-2.654C12.553,28.486,11.482,27.99,10.902,27.501z M9.079,31.166c-1.229,0-2.052-0.547-2.052-1.361
			c0-0.766,0.684-1.021,0.961-1.123c0.554-0.188,1.278-0.195,1.286-0.195V28.38l0.017,0.105c0.09,0,0.139,0,0.203,0.008
			c0.996,0.703,1.279,0.986,1.279,1.492C10.771,30.708,10.12,31.166,9.079,31.166z M7.671,23.876c0-0.359,0.073-0.627,0.228-0.814
			c0.171-0.203,0.473-0.35,0.741-0.35c0.879,0,1.416,1.263,1.416,2.158c0,0.367-0.08,0.619-0.251,0.798
			c-0.188,0.18-0.48,0.294-0.733,0.294C8.078,25.96,7.671,24.61,7.671,23.876z"/>
	</g>
</g>
</svg>
