<?xml version="1.0" encoding="utf-8"?>
<!-- Generator: Adobe Illustrator 16.1.0, SVG Export Plug-In . SVG Version: 6.00 Build 0)  -->
<!DOCTYPE svg PUBLIC "-//W3C//DTD SVG 1.1//EN" "http://www.w3.org/Graphics/SVG/1.1/DTD/svg11.dtd">
<svg version="1.1" id="Layer_1" xmlns="http://www.w3.org/2000/svg" xmlns:xlink="http://www.w3.org/1999/xlink" x="0px" y="0px"
	 width="18px" height="36px" viewBox="0 0 18 36" enable-background="new 0 0 18 36" xml:space="preserve">
<circle fill="#D3D3D3" cx="9" cy="9" r="9"/>
<g id="rss">
	<g>
		<path fill="#FFFFFF" d="M13.676,13.404v0.274h-1.503v-0.274c0-4.182-3.398-7.58-7.576-7.58H4.325V4.321h0.272
			C9.603,4.321,13.676,8.394,13.676,13.404z"/>
	</g>
	<g>
		<path fill="#FFFFFF" d="M10.602,13.391v0.271H8.93v-0.271c0-2.392-1.943-4.336-4.332-4.336H4.326V7.384h0.272
			C7.909,7.384,10.602,10.08,10.602,13.391z"/>
	</g>
	<circle fill="#FFFFFF" cx="5.59" cy="12.417" r="1.124"/>
</g>
<g id="colors">
	<circle fill="#FF6C01" cx="9" cy="27" r="9"/>
	<circle display="none" fill="#8DC63E" cx="9" cy="27" r="9"/>
	<circle display="none" fill="#318DBD" cx="9" cy="27" r="9"/>
</g>
<g id="rss_1_">
	<g>
		<path fill="#FFFFFF" d="M13.676,31.404v0.274h-1.503v-0.274c0-4.182-3.398-7.58-7.576-7.58H4.325v-1.502h0.272
			C9.603,22.322,13.676,26.394,13.676,31.404z"/>
	</g>
	<g>
		<path fill="#FFFFFF" d="M10.602,31.391v0.271H8.93v-0.271c0-2.392-1.943-4.336-4.332-4.336H4.326v-1.671h0.272
			C7.909,25.384,10.602,28.08,10.602,31.391z"/>
	</g>
	<circle fill="#FFFFFF" cx="5.59" cy="30.417" r="1.124"/>
</g>
</svg>
