<?xml version="1.0" encoding="utf-8"?>
<!-- Generator: Adobe Illustrator 16.1.0, SVG Export Plug-In . SVG Version: 6.00 Build 0)  -->
<!DOCTYPE svg PUBLIC "-//W3C//DTD SVG 1.1//EN" "http://www.w3.org/Graphics/SVG/1.1/DTD/svg11.dtd">
<svg version="1.1" id="Layer_1" xmlns="http://www.w3.org/2000/svg" xmlns:xlink="http://www.w3.org/1999/xlink" x="0px" y="0px"
	 width="18px" height="36px" viewBox="0 0 18 36" enable-background="new 0 0 18 36" xml:space="preserve">
<circle fill="#D3D3D3" cx="9" cy="9" r="9"/>
<path id="twitter_bird" fill="#FFFFFF" d="M13.882,5.967c-0.359,0.16-0.744,0.268-1.15,0.316c0.414-0.248,0.732-0.64,0.88-1.108
	c-0.387,0.23-0.815,0.397-1.272,0.485c-0.363-0.389-0.887-0.633-1.461-0.633c-1.107,0-2.004,0.896-2.004,2.004
	c0,0.157,0.02,0.309,0.051,0.456c-1.663-0.083-3.14-0.88-4.126-2.092C4.625,5.691,4.527,6.034,4.527,6.402
	c0,0.694,0.353,1.307,0.891,1.669C5.089,8.059,4.78,7.97,4.51,7.818c0,0.008,0,0.017,0,0.024c0,0.973,0.691,1.781,1.606,1.965
	C5.948,9.854,5.771,9.88,5.589,9.88c-0.129,0-0.253-0.015-0.376-0.038c0.255,0.801,0.995,1.38,1.871,1.398
	c-0.686,0.536-1.548,0.859-2.488,0.859c-0.162,0-0.322-0.014-0.478-0.031c0.887,0.569,1.94,0.903,3.07,0.903
	c3.684,0,5.701-3.058,5.701-5.708c0-0.087-0.002-0.172-0.007-0.26C13.274,6.722,13.612,6.369,13.882,5.967z"/>
<g id="colors">
	<circle fill="#FF6C01" cx="9" cy="27" r="9"/>
	<circle display="none" fill="#8DC63E" cx="9" cy="27" r="9"/>
	<circle display="none" fill="#318DBD" cx="9" cy="27" r="9"/>
</g>
<path id="twitter_bird_1_" fill="#FFFFFF" d="M13.882,23.967c-0.359,0.159-0.744,0.268-1.15,0.316
	c0.414-0.248,0.732-0.64,0.88-1.108c-0.387,0.23-0.815,0.396-1.272,0.485c-0.363-0.389-0.887-0.633-1.461-0.633
	c-1.107,0-2.004,0.896-2.004,2.004c0,0.157,0.02,0.31,0.051,0.456c-1.663-0.084-3.14-0.881-4.126-2.093
	c-0.173,0.296-0.271,0.639-0.271,1.007c0,0.694,0.353,1.307,0.891,1.669C5.089,26.058,4.78,25.97,4.51,25.818
	c0,0.009,0,0.018,0,0.024c0,0.973,0.691,1.781,1.606,1.966c-0.168,0.046-0.345,0.072-0.527,0.072c-0.129,0-0.253-0.016-0.376-0.039
	c0.255,0.802,0.995,1.381,1.871,1.398c-0.686,0.536-1.548,0.859-2.488,0.859c-0.162,0-0.322-0.014-0.478-0.031
	c0.887,0.569,1.94,0.903,3.07,0.903c3.684,0,5.701-3.058,5.701-5.708c0-0.087-0.002-0.172-0.007-0.26
	C13.274,24.722,13.612,24.369,13.882,23.967z"/>
</svg>
