<?xml version="1.0" encoding="utf-8"?>
<!-- Generator: Adobe Illustrator 16.1.0, SVG Export Plug-In . SVG Version: 6.00 Build 0)  -->
<!DOCTYPE svg PUBLIC "-//W3C//DTD SVG 1.1//EN" "http://www.w3.org/Graphics/SVG/1.1/DTD/svg11.dtd">
<svg version="1.1" id="Layer_1" xmlns="http://www.w3.org/2000/svg" xmlns:xlink="http://www.w3.org/1999/xlink" x="0px" y="0px"
	 width="14px" height="28px" viewBox="0 0 14 28" enable-background="new 0 0 14 28" xml:space="preserve">
<circle fill="#D3D3D3" cx="7" cy="7" r="7"/>
<g id="rss">
	<g>
		<path fill="#FFFFFF" d="M10.637,10.426v0.213H9.468v-0.213c0-3.252-2.643-5.896-5.892-5.896H3.364V3.361h0.212
			C7.469,3.361,10.637,6.529,10.637,10.426z"/>
	</g>
	<g>
		<path fill="#FFFFFF" d="M8.246,10.416v0.21h-1.3v-0.21c0-1.86-1.512-3.372-3.369-3.372H3.365v-1.3h0.212
			C6.151,5.744,8.246,7.84,8.246,10.416z"/>
	</g>
	<circle fill="#FFFFFF" cx="4.348" cy="9.658" r="0.874"/>
</g>
<circle fill="#318DBD" cx="7" cy="21" r="7"/>
<circle display="none" fill="#8DC63E" cx="7" cy="21" r="7"/>
<circle display="none" fill="#FF6C01" cx="7" cy="21" r="7"/>
<g id="rss_1_">
	<g>
		<path fill="#FFFFFF" d="M10.637,24.426v0.213H9.468v-0.213c0-3.252-2.643-5.896-5.892-5.896H3.364v-1.169h0.212
			C7.469,17.361,10.637,20.529,10.637,24.426z"/>
	</g>
	<g>
		<path fill="#FFFFFF" d="M8.246,24.416v0.21h-1.3v-0.21c0-1.86-1.512-3.373-3.369-3.373H3.365v-1.299h0.212
			C6.151,19.744,8.246,21.84,8.246,24.416z"/>
	</g>
	<circle fill="#FFFFFF" cx="4.348" cy="23.658" r="0.874"/>
</g>
</svg>
